# xmcd CD database file
#
# Track frame offsets:
#	150
#	53037
#	75262
#	101096
#	128824
#	163636
#	217792
#	247468
#	281381
#
# Disc length: 4458 seconds
#
# Revision: 0
# Processed by: cddbd v1.5.2PL0 Copyright (c) Steve Scherf et al.
# Submitted via: CDex 1.51
#
DISCID=74116809
DTITLE=Roald Dahl - Christian Gonon - Matilda
DYEAR=2011
DGENRE=Enfants
TTITLE0=Une adorable petite dévoreuse de livres
TTITLE1=M. Verdebois, le grand marchand de voitures
TTITLE2=Le chapeau et la superglu
TTITLE3=Un peu d'arithmétique
TTITLE4=La teinture blond platine
TTITLE5=Mademoiselle Candy
TTITLE6=Mademoiselle Legourdin
TTITLE7=Une visite chez les parents
TTITLE8=La méthode Legourdin
EXTD=YEAR: 2011
EXTT0=
EXTT1=
EXTT2=
EXTT3=
EXTT4=
EXTT5=
EXTT6=
EXTT7=
EXTT8=
PLAYORDER=
